<mxfile host="app.diagrams.net" agent="Mozilla/5.0 (Windows NT 10.0; Win64; x64) AppleWebKit/537.36 (KHTML, like Gecko) Chrome/130.0.0.0 Safari/537.36" version="24.8.6">
  <diagram name="第 1 页" id="Y34nq7q1EsvCYQxLirVz">
    <mxGraphModel grid="1" page="1" gridSize="10" guides="1" tooltips="1" connect="1" arrows="1" fold="1" pageScale="1" pageWidth="827" pageHeight="1169" math="0" shadow="0">
      <root>
        <mxCell id="0" />
        <mxCell id="1" parent="0" />
        <mxCell id="J3x-QJYufDD7xZZdP3bE-1" value="&lt;p style=&quot;margin: 0px; margin-top: 4px; text-align: center; text-decoration: underline;&quot;&gt;&lt;strong&gt;Process 1.1&lt;br&gt;&lt;/strong&gt;&lt;/p&gt;&lt;hr&gt;&lt;p style=&quot;margin: 0px; margin-left: 8px;&quot;&gt;Receive the signal&amp;nbsp;&lt;/p&gt;&lt;p style=&quot;margin: 0px; margin-left: 8px;&quot;&gt;from keyboard or&amp;nbsp;&lt;/p&gt;&lt;p style=&quot;margin: 0px; margin-left: 8px;&quot;&gt;controller&amp;nbsp;&lt;/p&gt;" style="verticalAlign=middle;align=center;overflow=fill;fontSize=12;fontFamily=Helvetica;html=1;rounded=1;fontStyle=1;strokeWidth=3;fillColor=#E6FFCC" vertex="1" parent="1">
          <mxGeometry x="414" y="150" width="144" height="90" as="geometry" />
        </mxCell>
        <mxCell id="J3x-QJYufDD7xZZdP3bE-2" value="Users" style="whiteSpace=wrap;align=center;verticalAlign=middle;fontStyle=1;strokeWidth=3;fillColor=#FFFFCC" vertex="1" parent="1">
          <mxGeometry x="260" y="60" width="96" height="60" as="geometry" />
        </mxCell>
        <mxCell id="J3x-QJYufDD7xZZdP3bE-3" value="" style="edgeStyle=none;noEdgeStyle=1;strokeColor=#990000;strokeWidth=2" edge="1" parent="1" source="J3x-QJYufDD7xZZdP3bE-2" target="J3x-QJYufDD7xZZdP3bE-1">
          <mxGeometry width="100" height="100" relative="1" as="geometry">
            <mxPoint x="380" y="190" as="sourcePoint" />
            <mxPoint x="480" y="90" as="targetPoint" />
          </mxGeometry>
        </mxCell>
        <mxCell id="J3x-QJYufDD7xZZdP3bE-58" value="&lt;span style=&quot;color: rgba(0, 0, 0, 0); font-family: monospace; font-size: 0px; text-align: start; background-color: rgb(251, 251, 251);&quot;&gt;%3CmxGraphModel%3E%3Croot%3E%3CmxCell%20id%3D%220%22%2F%3E%3CmxCell%20id%3D%221%22%20parent%3D%220%22%2F%3E%3CmxCell%20id%3D%222%22%20value%3D%22Users%20Input%22%20style%3D%22text%3BspacingTop%3D-5%3Balign%3Dcenter%22%20vertex%3D%221%22%20parent%3D%221%22%3E%3CmxGeometry%20x%3D%22265%22%20y%3D%22251%22%20width%3D%2230%22%20height%3D%2220%22%20as%3D%22geometry%22%2F%3E%3C%2FmxCell%3E%3C%2Froot%3E%3C%2FmxGraphModel%3E&lt;/span&gt;&lt;span style=&quot;color: rgba(0, 0, 0, 0); font-family: monospace; font-size: 0px; text-align: start; background-color: rgb(251, 251, 251);&quot;&gt;%3CmxGraphModel%3E%3Croot%3E%3CmxCell%20id%3D%220%22%2F%3E%3CmxCell%20id%3D%221%22%20parent%3D%220%22%2F%3E%3CmxCell%20id%3D%222%22%20value%3D%22Users%20Input%22%20style%3D%22text%3BspacingTop%3D-5%3Balign%3Dcenter%22%20vertex%3D%221%22%20parent%3D%221%22%3E%3CmxGeometry%20x%3D%22265%22%20y%3D%22251%22%20width%3D%2230%22%20height%3D%2220%22%20as%3D%22geometry%22%2F%3E%3C%2FmxCell%3E%3C%2Froot%3E%3C%2FmxGraphModel%3EU&lt;/span&gt;" style="edgeLabel;html=1;align=center;verticalAlign=middle;resizable=0;points=[];" connectable="0" vertex="1" parent="J3x-QJYufDD7xZZdP3bE-3">
          <mxGeometry x="0.1192" y="1" relative="1" as="geometry">
            <mxPoint as="offset" />
          </mxGeometry>
        </mxCell>
        <mxCell id="J3x-QJYufDD7xZZdP3bE-59" value="" style="edgeLabel;html=1;align=center;verticalAlign=middle;resizable=0;points=[];" connectable="0" vertex="1" parent="J3x-QJYufDD7xZZdP3bE-3">
          <mxGeometry x="0.0949" y="3" relative="1" as="geometry">
            <mxPoint as="offset" />
          </mxGeometry>
        </mxCell>
        <mxCell id="J3x-QJYufDD7xZZdP3bE-62" value="User input" style="edgeLabel;html=1;align=center;verticalAlign=middle;resizable=0;points=[];" connectable="0" vertex="1" parent="J3x-QJYufDD7xZZdP3bE-3">
          <mxGeometry x="0.111" y="-1" relative="1" as="geometry">
            <mxPoint x="13" y="-14" as="offset" />
          </mxGeometry>
        </mxCell>
        <mxCell id="J3x-QJYufDD7xZZdP3bE-5" value="&lt;p style=&quot;margin: 0px; margin-top: 4px; text-align: center; text-decoration: underline;&quot;&gt;&lt;strong&gt;Process 4.1&lt;br&gt;&lt;/strong&gt;&lt;/p&gt;&lt;hr&gt;&lt;p style=&quot;margin: 0px; margin-left: 8px;&quot;&gt;&lt;span style=&quot;background-color: initial;&quot;&gt;Receive&lt;/span&gt;&amp;nbsp;setting&lt;/p&gt;&lt;p style=&quot;margin: 0px; margin-left: 8px;&quot;&gt;changing record&lt;/p&gt;" style="verticalAlign=middle;align=center;overflow=fill;fontSize=12;fontFamily=Helvetica;html=1;rounded=1;fontStyle=1;strokeWidth=3;fillColor=#E6FFCC" vertex="1" parent="1">
          <mxGeometry x="527" y="470" width="144" height="90" as="geometry" />
        </mxCell>
        <mxCell id="J3x-QJYufDD7xZZdP3bE-6" value="&lt;p style=&quot;margin: 0px; margin-top: 4px; text-align: center; text-decoration: underline;&quot;&gt;&lt;strong&gt;Process 6.1&lt;br&gt;&lt;/strong&gt;&lt;/p&gt;&lt;hr&gt;&lt;p style=&quot;margin: 0px; margin-left: 8px;&quot;&gt;Integrate the&amp;nbsp;&lt;/p&gt;&lt;p style=&quot;margin: 0px; margin-left: 8px;&quot;&gt;information to the&amp;nbsp;&lt;/p&gt;&lt;p style=&quot;margin: 0px; margin-left: 8px;&quot;&gt;game server&lt;/p&gt;" style="verticalAlign=middle;align=center;overflow=fill;fontSize=12;fontFamily=Helvetica;html=1;rounded=1;fontStyle=1;strokeWidth=3;fillColor=#E6FFCC" vertex="1" parent="1">
          <mxGeometry x="414" y="950" width="144" height="90" as="geometry" />
        </mxCell>
        <mxCell id="J3x-QJYufDD7xZZdP3bE-7" value="&lt;p style=&quot;margin: 0px; margin-top: 4px; text-align: center; text-decoration: underline;&quot;&gt;&lt;strong&gt;Process 2.1&lt;br&gt;&lt;/strong&gt;&lt;/p&gt;&lt;hr&gt;&lt;p style=&quot;margin: 0px; margin-left: 8px;&quot;&gt;Receive monster&amp;nbsp;&lt;/p&gt;&lt;p style=&quot;margin: 0px; margin-left: 8px;&quot;&gt;killing record&lt;/p&gt;" style="verticalAlign=middle;align=center;overflow=fill;fontSize=12;fontFamily=Helvetica;html=1;rounded=1;fontStyle=1;strokeWidth=3;fillColor=#E6FFCC" vertex="1" parent="1">
          <mxGeometry x="88" y="470" width="144" height="90" as="geometry" />
        </mxCell>
        <mxCell id="J3x-QJYufDD7xZZdP3bE-9" value="" style="edgeStyle=none;noEdgeStyle=1;strokeColor=#990000;strokeWidth=2;exitX=0.5;exitY=0;exitDx=0;exitDy=0;entryX=0.25;entryY=1;entryDx=0;entryDy=0;" edge="1" parent="1" source="J3x-QJYufDD7xZZdP3bE-88" target="J3x-QJYufDD7xZZdP3bE-2">
          <mxGeometry width="100" height="100" relative="1" as="geometry">
            <mxPoint x="350" y="291" as="sourcePoint" />
            <mxPoint x="230" y="291" as="targetPoint" />
          </mxGeometry>
        </mxCell>
        <mxCell id="J3x-QJYufDD7xZZdP3bE-63" value="Game Display" style="edgeLabel;html=1;align=center;verticalAlign=middle;resizable=0;points=[];" connectable="0" vertex="1" parent="J3x-QJYufDD7xZZdP3bE-9">
          <mxGeometry x="-0.4597" y="2" relative="1" as="geometry">
            <mxPoint x="5" y="-32" as="offset" />
          </mxGeometry>
        </mxCell>
        <mxCell id="J3x-QJYufDD7xZZdP3bE-10" value="" style="edgeStyle=none;noEdgeStyle=1;strokeColor=#990000;strokeWidth=2;exitX=0.5;exitY=1;exitDx=0;exitDy=0;entryX=0.5;entryY=0;entryDx=0;entryDy=0;" edge="1" parent="1" source="J3x-QJYufDD7xZZdP3bE-66" target="J3x-QJYufDD7xZZdP3bE-7">
          <mxGeometry width="100" height="100" relative="1" as="geometry">
            <mxPoint x="370" y="330" as="sourcePoint" />
            <mxPoint x="300" y="420" as="targetPoint" />
            <Array as="points" />
          </mxGeometry>
        </mxCell>
        <mxCell id="J3x-QJYufDD7xZZdP3bE-11" value="&amp;nbsp;monster killing record" style="edgeLabel;html=1;align=center;verticalAlign=middle;resizable=0;points=[];" connectable="0" vertex="1" parent="J3x-QJYufDD7xZZdP3bE-10">
          <mxGeometry x="-0.0797" y="-2" relative="1" as="geometry">
            <mxPoint y="1" as="offset" />
          </mxGeometry>
        </mxCell>
        <mxCell id="J3x-QJYufDD7xZZdP3bE-12" value="" style="edgeStyle=none;noEdgeStyle=1;strokeColor=#990000;strokeWidth=2;entryX=0.5;entryY=0;entryDx=0;entryDy=0;exitX=0.5;exitY=1;exitDx=0;exitDy=0;" edge="1" parent="1" source="J3x-QJYufDD7xZZdP3bE-64" target="J3x-QJYufDD7xZZdP3bE-5">
          <mxGeometry width="100" height="100" relative="1" as="geometry">
            <mxPoint x="667" y="400" as="sourcePoint" />
            <mxPoint x="447" y="430" as="targetPoint" />
            <Array as="points" />
          </mxGeometry>
        </mxCell>
        <mxCell id="J3x-QJYufDD7xZZdP3bE-13" value="setting changing record" style="edgeLabel;html=1;align=center;verticalAlign=middle;resizable=0;points=[];" connectable="0" vertex="1" parent="J3x-QJYufDD7xZZdP3bE-12">
          <mxGeometry x="-0.1913" y="-2" relative="1" as="geometry">
            <mxPoint as="offset" />
          </mxGeometry>
        </mxCell>
        <mxCell id="J3x-QJYufDD7xZZdP3bE-14" value="" style="edgeStyle=none;noEdgeStyle=1;strokeColor=#990000;strokeWidth=2;entryX=0.5;entryY=0;entryDx=0;entryDy=0;exitX=0.5;exitY=1;exitDx=0;exitDy=0;" edge="1" parent="1" source="J3x-QJYufDD7xZZdP3bE-99" target="J3x-QJYufDD7xZZdP3bE-21">
          <mxGeometry width="100" height="100" relative="1" as="geometry">
            <mxPoint x="618" y="690" as="sourcePoint" />
            <mxPoint x="518" y="610" as="targetPoint" />
            <Array as="points" />
          </mxGeometry>
        </mxCell>
        <mxCell id="J3x-QJYufDD7xZZdP3bE-15" value="setting changing data" style="edgeLabel;html=1;align=center;verticalAlign=middle;resizable=0;points=[];" connectable="0" vertex="1" parent="J3x-QJYufDD7xZZdP3bE-14">
          <mxGeometry x="-0.1913" y="-2" relative="1" as="geometry">
            <mxPoint as="offset" />
          </mxGeometry>
        </mxCell>
        <mxCell id="J3x-QJYufDD7xZZdP3bE-16" value="Storage input &#xa;log" style="group;align=right;" connectable="0" vertex="1" parent="1">
          <mxGeometry x="540" y="810" width="120" height="60" as="geometry" />
        </mxCell>
        <mxCell id="J3x-QJYufDD7xZZdP3bE-17" value="" style="endArrow=none;html=1;rounded=0;fillColor=#60a917;strokeColor=#2D7600;" edge="1" parent="J3x-QJYufDD7xZZdP3bE-16">
          <mxGeometry width="50" height="50" relative="1" as="geometry">
            <mxPoint as="sourcePoint" />
            <mxPoint x="120" as="targetPoint" />
          </mxGeometry>
        </mxCell>
        <mxCell id="J3x-QJYufDD7xZZdP3bE-18" value="" style="endArrow=none;html=1;rounded=0;fillColor=#60a917;strokeColor=#000000;jumpSize=6;strokeWidth=3;" edge="1" parent="J3x-QJYufDD7xZZdP3bE-16">
          <mxGeometry width="50" height="50" relative="1" as="geometry">
            <mxPoint y="60" as="sourcePoint" />
            <mxPoint x="120" y="60" as="targetPoint" />
          </mxGeometry>
        </mxCell>
        <mxCell id="J3x-QJYufDD7xZZdP3bE-19" value="" style="endArrow=none;html=1;rounded=0;fillColor=#60a917;strokeColor=#2D7600;" edge="1" parent="J3x-QJYufDD7xZZdP3bE-16">
          <mxGeometry width="50" height="50" relative="1" as="geometry">
            <mxPoint y="60" as="sourcePoint" />
            <mxPoint as="targetPoint" />
          </mxGeometry>
        </mxCell>
        <mxCell id="J3x-QJYufDD7xZZdP3bE-20" value="" style="endArrow=none;html=1;rounded=0;fillColor=#60a917;strokeColor=#2D7600;" edge="1" parent="J3x-QJYufDD7xZZdP3bE-16">
          <mxGeometry width="50" height="50" relative="1" as="geometry">
            <mxPoint x="30" y="60" as="sourcePoint" />
            <mxPoint x="30" as="targetPoint" />
          </mxGeometry>
        </mxCell>
        <mxCell id="J3x-QJYufDD7xZZdP3bE-21" value="&amp;nbsp; &amp;nbsp; &amp;nbsp; &amp;nbsp; setting changing&lt;div&gt;&amp;nbsp; &amp;nbsp; record&lt;/div&gt;" style="shape=partialRectangle;whiteSpace=wrap;html=1;bottom=0;right=0;fillColor=#cce5ff;strokeColor=#36393d;align=center;" vertex="1" parent="J3x-QJYufDD7xZZdP3bE-16">
          <mxGeometry width="120" height="60" as="geometry" />
        </mxCell>
        <mxCell id="J3x-QJYufDD7xZZdP3bE-22" value="" style="line;strokeWidth=2;direction=south;html=1;" vertex="1" parent="J3x-QJYufDD7xZZdP3bE-16">
          <mxGeometry x="20" width="10" height="60" as="geometry" />
        </mxCell>
        <mxCell id="J3x-QJYufDD7xZZdP3bE-23" value="D1" style="text;spacingTop=-5;align=center" vertex="1" parent="J3x-QJYufDD7xZZdP3bE-16">
          <mxGeometry y="20" width="30" height="20" as="geometry" />
        </mxCell>
        <mxCell id="J3x-QJYufDD7xZZdP3bE-24" value="" style="edgeStyle=none;noEdgeStyle=1;strokeColor=#990000;strokeWidth=2;entryX=0.5;entryY=0;entryDx=0;entryDy=0;exitX=0.5;exitY=1;exitDx=0;exitDy=0;" edge="1" parent="1" source="J3x-QJYufDD7xZZdP3bE-95" target="J3x-QJYufDD7xZZdP3bE-31">
          <mxGeometry width="100" height="100" relative="1" as="geometry">
            <mxPoint x="180" y="730" as="sourcePoint" />
            <mxPoint x="290" y="610" as="targetPoint" />
            <Array as="points" />
          </mxGeometry>
        </mxCell>
        <mxCell id="J3x-QJYufDD7xZZdP3bE-25" value="&amp;nbsp;monster killing data" style="edgeLabel;html=1;align=center;verticalAlign=middle;resizable=0;points=[];" connectable="0" vertex="1" parent="J3x-QJYufDD7xZZdP3bE-24">
          <mxGeometry x="-0.0797" y="-2" relative="1" as="geometry">
            <mxPoint y="1" as="offset" />
          </mxGeometry>
        </mxCell>
        <mxCell id="J3x-QJYufDD7xZZdP3bE-26" value="Storage input &#xa;log" style="group;align=right;" connectable="0" vertex="1" parent="1">
          <mxGeometry x="100" y="810" width="120" height="60" as="geometry" />
        </mxCell>
        <mxCell id="J3x-QJYufDD7xZZdP3bE-27" value="" style="endArrow=none;html=1;rounded=0;fillColor=#60a917;strokeColor=#2D7600;" edge="1" parent="J3x-QJYufDD7xZZdP3bE-26">
          <mxGeometry width="50" height="50" relative="1" as="geometry">
            <mxPoint as="sourcePoint" />
            <mxPoint x="120" as="targetPoint" />
          </mxGeometry>
        </mxCell>
        <mxCell id="J3x-QJYufDD7xZZdP3bE-28" value="" style="endArrow=none;html=1;rounded=0;fillColor=#60a917;strokeColor=#000000;jumpSize=6;strokeWidth=3;" edge="1" parent="J3x-QJYufDD7xZZdP3bE-26">
          <mxGeometry width="50" height="50" relative="1" as="geometry">
            <mxPoint y="60" as="sourcePoint" />
            <mxPoint x="120" y="60" as="targetPoint" />
          </mxGeometry>
        </mxCell>
        <mxCell id="J3x-QJYufDD7xZZdP3bE-29" value="" style="endArrow=none;html=1;rounded=0;fillColor=#60a917;strokeColor=#2D7600;" edge="1" parent="J3x-QJYufDD7xZZdP3bE-26">
          <mxGeometry width="50" height="50" relative="1" as="geometry">
            <mxPoint y="60" as="sourcePoint" />
            <mxPoint as="targetPoint" />
          </mxGeometry>
        </mxCell>
        <mxCell id="J3x-QJYufDD7xZZdP3bE-30" value="" style="endArrow=none;html=1;rounded=0;fillColor=#60a917;strokeColor=#2D7600;" edge="1" parent="J3x-QJYufDD7xZZdP3bE-26">
          <mxGeometry width="50" height="50" relative="1" as="geometry">
            <mxPoint x="30" y="60" as="sourcePoint" />
            <mxPoint x="30" as="targetPoint" />
          </mxGeometry>
        </mxCell>
        <mxCell id="J3x-QJYufDD7xZZdP3bE-31" value="&lt;div style=&quot;&quot;&gt;&lt;span style=&quot;background-color: initial;&quot;&gt;&amp;nbsp; &amp;nbsp; &amp;nbsp; &amp;nbsp;monster killing&lt;/span&gt;&lt;/div&gt;&lt;div&gt;&amp;nbsp; &amp;nbsp; &amp;nbsp;record&lt;/div&gt;" style="shape=partialRectangle;whiteSpace=wrap;html=1;bottom=0;right=0;fillColor=#cce5ff;strokeColor=#36393d;align=center;" vertex="1" parent="J3x-QJYufDD7xZZdP3bE-26">
          <mxGeometry width="120" height="60" as="geometry" />
        </mxCell>
        <mxCell id="J3x-QJYufDD7xZZdP3bE-32" value="" style="line;strokeWidth=2;direction=south;html=1;" vertex="1" parent="J3x-QJYufDD7xZZdP3bE-26">
          <mxGeometry x="20" width="10" height="60" as="geometry" />
        </mxCell>
        <mxCell id="J3x-QJYufDD7xZZdP3bE-33" value="D2" style="text;spacingTop=-5;align=center" vertex="1" parent="J3x-QJYufDD7xZZdP3bE-26">
          <mxGeometry y="20" width="30" height="20" as="geometry" />
        </mxCell>
        <mxCell id="J3x-QJYufDD7xZZdP3bE-34" value="" style="edgeStyle=none;noEdgeStyle=1;strokeColor=#990000;strokeWidth=2;entryX=0;entryY=0.25;entryDx=0;entryDy=0;exitX=0.436;exitY=1.078;exitDx=0;exitDy=0;exitPerimeter=0;" edge="1" parent="1" source="J3x-QJYufDD7xZZdP3bE-31" target="J3x-QJYufDD7xZZdP3bE-6">
          <mxGeometry width="100" height="100" relative="1" as="geometry">
            <mxPoint x="260" y="660" as="sourcePoint" />
            <mxPoint x="240" y="710" as="targetPoint" />
            <Array as="points" />
          </mxGeometry>
        </mxCell>
        <mxCell id="J3x-QJYufDD7xZZdP3bE-35" value="&amp;nbsp;monster killing data" style="edgeLabel;html=1;align=center;verticalAlign=middle;resizable=0;points=[];" connectable="0" vertex="1" parent="J3x-QJYufDD7xZZdP3bE-34">
          <mxGeometry x="-0.0797" y="-2" relative="1" as="geometry">
            <mxPoint y="1" as="offset" />
          </mxGeometry>
        </mxCell>
        <mxCell id="J3x-QJYufDD7xZZdP3bE-36" value="" style="edgeStyle=none;noEdgeStyle=1;strokeColor=#990000;strokeWidth=2;exitX=0.5;exitY=1;exitDx=0;exitDy=0;entryX=0.595;entryY=0.004;entryDx=0;entryDy=0;entryPerimeter=0;" edge="1" parent="1" source="J3x-QJYufDD7xZZdP3bE-21" target="J3x-QJYufDD7xZZdP3bE-6">
          <mxGeometry width="100" height="100" relative="1" as="geometry">
            <mxPoint x="700" y="661" as="sourcePoint" />
            <mxPoint x="520" y="947" as="targetPoint" />
            <Array as="points" />
          </mxGeometry>
        </mxCell>
        <mxCell id="J3x-QJYufDD7xZZdP3bE-138" value="setting changing data" style="edgeLabel;html=1;align=center;verticalAlign=middle;resizable=0;points=[];" connectable="0" vertex="1" parent="J3x-QJYufDD7xZZdP3bE-36">
          <mxGeometry x="-0.2808" relative="1" as="geometry">
            <mxPoint as="offset" />
          </mxGeometry>
        </mxCell>
        <mxCell id="J3x-QJYufDD7xZZdP3bE-38" value="" style="edgeStyle=none;noEdgeStyle=1;strokeColor=#990000;strokeWidth=2;exitX=1;exitY=0.5;exitDx=0;exitDy=0;entryX=0;entryY=0.5;entryDx=0;entryDy=0;" edge="1" parent="1" source="J3x-QJYufDD7xZZdP3bE-6" target="J3x-QJYufDD7xZZdP3bE-106">
          <mxGeometry width="100" height="100" relative="1" as="geometry">
            <mxPoint x="530" y="770" as="sourcePoint" />
            <mxPoint x="590" y="1030" as="targetPoint" />
            <Array as="points" />
          </mxGeometry>
        </mxCell>
        <mxCell id="J3x-QJYufDD7xZZdP3bE-94" value="&lt;span style=&quot;font-size: 12px; background-color: rgb(251, 251, 251);&quot;&gt;Game server information display&lt;/span&gt;" style="edgeLabel;html=1;align=center;verticalAlign=middle;resizable=0;points=[];" connectable="0" vertex="1" parent="J3x-QJYufDD7xZZdP3bE-38">
          <mxGeometry x="0.0281" y="-2" relative="1" as="geometry">
            <mxPoint y="-17" as="offset" />
          </mxGeometry>
        </mxCell>
        <mxCell id="J3x-QJYufDD7xZZdP3bE-39" value="Developer" style="whiteSpace=wrap;align=center;verticalAlign=middle;fontStyle=1;strokeWidth=3;fillColor=#FFFFCC" vertex="1" parent="1">
          <mxGeometry x="600" y="1050" width="90" height="60" as="geometry" />
        </mxCell>
        <mxCell id="J3x-QJYufDD7xZZdP3bE-40" value="" style="edgeStyle=none;noEdgeStyle=1;strokeColor=#990000;strokeWidth=2;exitX=0.137;exitY=0.028;exitDx=0;exitDy=0;entryX=1.007;entryY=0.619;entryDx=0;entryDy=0;entryPerimeter=0;exitPerimeter=0;" edge="1" parent="1" source="J3x-QJYufDD7xZZdP3bE-39" target="J3x-QJYufDD7xZZdP3bE-6">
          <mxGeometry width="100" height="100" relative="1" as="geometry">
            <mxPoint x="710" y="770" as="sourcePoint" />
            <mxPoint x="558" y="1000" as="targetPoint" />
            <Array as="points" />
          </mxGeometry>
        </mxCell>
        <mxCell id="J3x-QJYufDD7xZZdP3bE-41" value="Check and handling error" style="edgeLabel;html=1;align=center;verticalAlign=middle;resizable=0;points=[];strokeColor=#36393d;fontFamily=Helvetica;fontSize=12;fontColor=default;fillColor=#cce5ff;" connectable="0" vertex="1" parent="J3x-QJYufDD7xZZdP3bE-40">
          <mxGeometry x="-0.0654" y="-1" relative="1" as="geometry">
            <mxPoint x="-61" y="21" as="offset" />
          </mxGeometry>
        </mxCell>
        <mxCell id="J3x-QJYufDD7xZZdP3bE-43" value="&lt;p style=&quot;margin: 0px; margin-top: 4px; text-align: center; text-decoration: underline;&quot;&gt;&lt;strong&gt;Process 3.1&lt;br&gt;&lt;/strong&gt;&lt;/p&gt;&lt;hr&gt;&lt;p style=&quot;margin: 0px; margin-left: 8px;&quot;&gt;&lt;span style=&quot;background-color: initial;&quot;&gt;Receive&lt;/span&gt;&amp;nbsp;map&amp;nbsp;&lt;/p&gt;&lt;p style=&quot;margin: 0px; margin-left: 8px;&quot;&gt;generating&lt;/p&gt;&lt;p style=&quot;margin: 0px; margin-left: 8px;&quot;&gt;&lt;span style=&quot;background-color: initial;&quot;&gt;&amp;nbsp;record&lt;/span&gt;&lt;/p&gt;" style="verticalAlign=middle;align=center;overflow=fill;fontSize=12;fontFamily=Helvetica;html=1;rounded=1;fontStyle=1;strokeWidth=3;fillColor=#E6FFCC" vertex="1" parent="1">
          <mxGeometry x="309" y="470" width="144" height="90" as="geometry" />
        </mxCell>
        <mxCell id="J3x-QJYufDD7xZZdP3bE-44" value="" style="edgeStyle=none;noEdgeStyle=1;strokeColor=#990000;strokeWidth=2;entryX=0.5;entryY=0;entryDx=0;entryDy=0;" edge="1" parent="1" source="J3x-QJYufDD7xZZdP3bE-65" target="J3x-QJYufDD7xZZdP3bE-43">
          <mxGeometry width="100" height="100" relative="1" as="geometry">
            <mxPoint x="375" y="402" as="sourcePoint" />
            <mxPoint x="355" y="471.64" as="targetPoint" />
            <Array as="points" />
          </mxGeometry>
        </mxCell>
        <mxCell id="J3x-QJYufDD7xZZdP3bE-46" value="" style="edgeStyle=none;noEdgeStyle=1;strokeColor=#990000;strokeWidth=2;entryX=0.5;entryY=0;entryDx=0;entryDy=0;exitX=0.5;exitY=1;exitDx=0;exitDy=0;" edge="1" parent="1" source="J3x-QJYufDD7xZZdP3bE-97">
          <mxGeometry width="100" height="100" relative="1" as="geometry">
            <mxPoint x="387" y="710" as="sourcePoint" />
            <mxPoint x="387" y="810" as="targetPoint" />
            <Array as="points" />
          </mxGeometry>
        </mxCell>
        <mxCell id="J3x-QJYufDD7xZZdP3bE-47" value="&amp;nbsp; map&amp;nbsp;generating data" style="edgeLabel;html=1;align=center;verticalAlign=middle;resizable=0;points=[];" connectable="0" vertex="1" parent="J3x-QJYufDD7xZZdP3bE-46">
          <mxGeometry x="-0.0797" y="-2" relative="1" as="geometry">
            <mxPoint y="1" as="offset" />
          </mxGeometry>
        </mxCell>
        <mxCell id="J3x-QJYufDD7xZZdP3bE-48" value="Storage input &#xa;log" style="group;align=right;" connectable="0" vertex="1" parent="1">
          <mxGeometry x="330" y="810" width="120" height="60" as="geometry" />
        </mxCell>
        <mxCell id="J3x-QJYufDD7xZZdP3bE-49" value="" style="endArrow=none;html=1;rounded=0;fillColor=#60a917;strokeColor=#2D7600;" edge="1" parent="J3x-QJYufDD7xZZdP3bE-48">
          <mxGeometry width="50" height="50" relative="1" as="geometry">
            <mxPoint x="-3" as="sourcePoint" />
            <mxPoint x="117" as="targetPoint" />
          </mxGeometry>
        </mxCell>
        <mxCell id="J3x-QJYufDD7xZZdP3bE-50" value="" style="endArrow=none;html=1;rounded=0;fillColor=#60a917;strokeColor=#000000;jumpSize=6;strokeWidth=3;" edge="1" parent="J3x-QJYufDD7xZZdP3bE-48">
          <mxGeometry width="50" height="50" relative="1" as="geometry">
            <mxPoint y="60" as="sourcePoint" />
            <mxPoint x="120" y="60" as="targetPoint" />
          </mxGeometry>
        </mxCell>
        <mxCell id="J3x-QJYufDD7xZZdP3bE-51" value="" style="endArrow=none;html=1;rounded=0;fillColor=#60a917;strokeColor=#2D7600;" edge="1" parent="J3x-QJYufDD7xZZdP3bE-48">
          <mxGeometry width="50" height="50" relative="1" as="geometry">
            <mxPoint y="60" as="sourcePoint" />
            <mxPoint as="targetPoint" />
          </mxGeometry>
        </mxCell>
        <mxCell id="J3x-QJYufDD7xZZdP3bE-52" value="" style="endArrow=none;html=1;rounded=0;fillColor=#60a917;strokeColor=#2D7600;" edge="1" parent="J3x-QJYufDD7xZZdP3bE-48">
          <mxGeometry width="50" height="50" relative="1" as="geometry">
            <mxPoint x="30" y="60" as="sourcePoint" />
            <mxPoint x="30" as="targetPoint" />
          </mxGeometry>
        </mxCell>
        <mxCell id="J3x-QJYufDD7xZZdP3bE-53" value="&lt;div style=&quot;&quot;&gt;&lt;span style=&quot;background-color: initial;&quot;&gt;&amp;nbsp; &amp;nbsp; &amp;nbsp; &amp;nbsp; map generating&lt;/span&gt;&lt;/div&gt;&lt;div&gt;&amp;nbsp; &amp;nbsp; &amp;nbsp;record&lt;/div&gt;" style="shape=partialRectangle;whiteSpace=wrap;html=1;bottom=0;right=0;fillColor=#cce5ff;strokeColor=#36393d;align=center;" vertex="1" parent="J3x-QJYufDD7xZZdP3bE-48">
          <mxGeometry width="120" height="60" as="geometry" />
        </mxCell>
        <mxCell id="J3x-QJYufDD7xZZdP3bE-54" value="" style="line;strokeWidth=2;direction=south;html=1;" vertex="1" parent="J3x-QJYufDD7xZZdP3bE-48">
          <mxGeometry x="20" width="10" height="60" as="geometry" />
        </mxCell>
        <mxCell id="J3x-QJYufDD7xZZdP3bE-55" value="D2" style="text;spacingTop=-5;align=center" vertex="1" parent="J3x-QJYufDD7xZZdP3bE-48">
          <mxGeometry y="20" width="30" height="20" as="geometry" />
        </mxCell>
        <mxCell id="J3x-QJYufDD7xZZdP3bE-56" value="" style="edgeStyle=none;noEdgeStyle=1;strokeColor=#990000;strokeWidth=2;exitX=0.5;exitY=1;exitDx=0;exitDy=0;entryX=0.428;entryY=-0.033;entryDx=0;entryDy=0;entryPerimeter=0;" edge="1" parent="1" source="J3x-QJYufDD7xZZdP3bE-53" target="J3x-QJYufDD7xZZdP3bE-6">
          <mxGeometry width="100" height="100" relative="1" as="geometry">
            <mxPoint x="430" y="620" as="sourcePoint" />
            <mxPoint x="461" y="949" as="targetPoint" />
            <Array as="points" />
          </mxGeometry>
        </mxCell>
        <mxCell id="J3x-QJYufDD7xZZdP3bE-57" value="&amp;nbsp;map generating data" style="edgeLabel;html=1;align=center;verticalAlign=middle;resizable=0;points=[];" connectable="0" vertex="1" parent="J3x-QJYufDD7xZZdP3bE-56">
          <mxGeometry x="-0.0797" y="-2" relative="1" as="geometry">
            <mxPoint y="1" as="offset" />
          </mxGeometry>
        </mxCell>
        <mxCell id="J3x-QJYufDD7xZZdP3bE-64" value="&lt;p style=&quot;margin: 0px; margin-top: 4px; text-align: center; text-decoration: underline;&quot;&gt;&lt;strong&gt;Process 1.5&lt;br&gt;&lt;/strong&gt;&lt;/p&gt;&lt;hr&gt;&lt;p style=&quot;margin: 0px; margin-left: 8px;&quot;&gt;Initial the start menu&amp;nbsp;&lt;/p&gt;&lt;p style=&quot;margin: 0px; margin-left: 8px;&quot;&gt;and setting system&lt;/p&gt;" style="verticalAlign=middle;align=center;overflow=fill;fontSize=12;fontFamily=Helvetica;html=1;rounded=1;fontStyle=1;strokeWidth=3;fillColor=#E6FFCC" vertex="1" parent="1">
          <mxGeometry x="527" y="310" width="144" height="90" as="geometry" />
        </mxCell>
        <mxCell id="J3x-QJYufDD7xZZdP3bE-66" value="&lt;p style=&quot;margin: 0px; margin-top: 4px; text-align: center; text-decoration: underline;&quot;&gt;&lt;strong&gt;Process 1.3&lt;br&gt;&lt;/strong&gt;&lt;/p&gt;&lt;hr&gt;&lt;p style=&quot;margin: 0px; margin-left: 8px;&quot;&gt;initial the monster&amp;nbsp;&lt;/p&gt;&lt;p style=&quot;margin: 0px; margin-left: 8px;&quot;&gt;randomly and generate&lt;/p&gt;&lt;p style=&quot;margin: 0px; margin-left: 8px;&quot;&gt;the killing table&amp;nbsp;&lt;/p&gt;" style="verticalAlign=middle;align=center;overflow=fill;fontSize=12;fontFamily=Helvetica;html=1;rounded=1;fontStyle=1;strokeWidth=3;fillColor=#E6FFCC" vertex="1" parent="1">
          <mxGeometry x="88" y="310" width="144" height="90" as="geometry" />
        </mxCell>
        <mxCell id="J3x-QJYufDD7xZZdP3bE-68" value="" style="edgeStyle=none;noEdgeStyle=1;strokeColor=#990000;strokeWidth=2;exitX=0;exitY=0.75;exitDx=0;exitDy=0;entryX=0.5;entryY=0;entryDx=0;entryDy=0;" edge="1" parent="1" source="J3x-QJYufDD7xZZdP3bE-1" target="J3x-QJYufDD7xZZdP3bE-66">
          <mxGeometry width="100" height="100" relative="1" as="geometry">
            <mxPoint x="182" y="268" as="sourcePoint" />
            <mxPoint x="364" y="290" as="targetPoint" />
          </mxGeometry>
        </mxCell>
        <mxCell id="J3x-QJYufDD7xZZdP3bE-69" value="&lt;span style=&quot;color: rgba(0, 0, 0, 0); font-family: monospace; font-size: 0px; text-align: start; background-color: rgb(251, 251, 251);&quot;&gt;%3CmxGraphModel%3E%3Croot%3E%3CmxCell%20id%3D%220%22%2F%3E%3CmxCell%20id%3D%221%22%20parent%3D%220%22%2F%3E%3CmxCell%20id%3D%222%22%20value%3D%22Users%20Input%22%20style%3D%22text%3BspacingTop%3D-5%3Balign%3Dcenter%22%20vertex%3D%221%22%20parent%3D%221%22%3E%3CmxGeometry%20x%3D%22265%22%20y%3D%22251%22%20width%3D%2230%22%20height%3D%2220%22%20as%3D%22geometry%22%2F%3E%3C%2FmxCell%3E%3C%2Froot%3E%3C%2FmxGraphModel%3E&lt;/span&gt;&lt;span style=&quot;color: rgba(0, 0, 0, 0); font-family: monospace; font-size: 0px; text-align: start; background-color: rgb(251, 251, 251);&quot;&gt;%3CmxGraphModel%3E%3Croot%3E%3CmxCell%20id%3D%220%22%2F%3E%3CmxCell%20id%3D%221%22%20parent%3D%220%22%2F%3E%3CmxCell%20id%3D%222%22%20value%3D%22Users%20Input%22%20style%3D%22text%3BspacingTop%3D-5%3Balign%3Dcenter%22%20vertex%3D%221%22%20parent%3D%221%22%3E%3CmxGeometry%20x%3D%22265%22%20y%3D%22251%22%20width%3D%2230%22%20height%3D%2220%22%20as%3D%22geometry%22%2F%3E%3C%2FmxCell%3E%3C%2Froot%3E%3C%2FmxGraphModel%3EU&lt;/span&gt;" style="edgeLabel;html=1;align=center;verticalAlign=middle;resizable=0;points=[];" connectable="0" vertex="1" parent="J3x-QJYufDD7xZZdP3bE-68">
          <mxGeometry x="0.1192" y="1" relative="1" as="geometry">
            <mxPoint as="offset" />
          </mxGeometry>
        </mxCell>
        <mxCell id="J3x-QJYufDD7xZZdP3bE-70" value="" style="edgeLabel;html=1;align=center;verticalAlign=middle;resizable=0;points=[];" connectable="0" vertex="1" parent="J3x-QJYufDD7xZZdP3bE-68">
          <mxGeometry x="0.0949" y="3" relative="1" as="geometry">
            <mxPoint as="offset" />
          </mxGeometry>
        </mxCell>
        <mxCell id="J3x-QJYufDD7xZZdP3bE-71" value="User input" style="edgeLabel;html=1;align=center;verticalAlign=middle;resizable=0;points=[];" connectable="0" vertex="1" parent="J3x-QJYufDD7xZZdP3bE-68">
          <mxGeometry x="0.111" y="-1" relative="1" as="geometry">
            <mxPoint as="offset" />
          </mxGeometry>
        </mxCell>
        <mxCell id="J3x-QJYufDD7xZZdP3bE-72" value="" style="edgeStyle=none;noEdgeStyle=1;strokeColor=#990000;strokeWidth=2;exitX=0.5;exitY=1;exitDx=0;exitDy=0;entryX=0.5;entryY=0;entryDx=0;entryDy=0;" edge="1" parent="1" source="J3x-QJYufDD7xZZdP3bE-1" target="J3x-QJYufDD7xZZdP3bE-65">
          <mxGeometry width="100" height="100" relative="1" as="geometry">
            <mxPoint x="369" y="271" as="sourcePoint" />
            <mxPoint x="217" y="322" as="targetPoint" />
          </mxGeometry>
        </mxCell>
        <mxCell id="J3x-QJYufDD7xZZdP3bE-73" value="&lt;span style=&quot;color: rgba(0, 0, 0, 0); font-family: monospace; font-size: 0px; text-align: start; background-color: rgb(251, 251, 251);&quot;&gt;%3CmxGraphModel%3E%3Croot%3E%3CmxCell%20id%3D%220%22%2F%3E%3CmxCell%20id%3D%221%22%20parent%3D%220%22%2F%3E%3CmxCell%20id%3D%222%22%20value%3D%22Users%20Input%22%20style%3D%22text%3BspacingTop%3D-5%3Balign%3Dcenter%22%20vertex%3D%221%22%20parent%3D%221%22%3E%3CmxGeometry%20x%3D%22265%22%20y%3D%22251%22%20width%3D%2230%22%20height%3D%2220%22%20as%3D%22geometry%22%2F%3E%3C%2FmxCell%3E%3C%2Froot%3E%3C%2FmxGraphModel%3E&lt;/span&gt;&lt;span style=&quot;color: rgba(0, 0, 0, 0); font-family: monospace; font-size: 0px; text-align: start; background-color: rgb(251, 251, 251);&quot;&gt;%3CmxGraphModel%3E%3Croot%3E%3CmxCell%20id%3D%220%22%2F%3E%3CmxCell%20id%3D%221%22%20parent%3D%220%22%2F%3E%3CmxCell%20id%3D%222%22%20value%3D%22Users%20Input%22%20style%3D%22text%3BspacingTop%3D-5%3Balign%3Dcenter%22%20vertex%3D%221%22%20parent%3D%221%22%3E%3CmxGeometry%20x%3D%22265%22%20y%3D%22251%22%20width%3D%2230%22%20height%3D%2220%22%20as%3D%22geometry%22%2F%3E%3C%2FmxCell%3E%3C%2Froot%3E%3C%2FmxGraphModel%3EU&lt;/span&gt;" style="edgeLabel;html=1;align=center;verticalAlign=middle;resizable=0;points=[];" connectable="0" vertex="1" parent="J3x-QJYufDD7xZZdP3bE-72">
          <mxGeometry x="0.1192" y="1" relative="1" as="geometry">
            <mxPoint as="offset" />
          </mxGeometry>
        </mxCell>
        <mxCell id="J3x-QJYufDD7xZZdP3bE-74" value="" style="edgeLabel;html=1;align=center;verticalAlign=middle;resizable=0;points=[];" connectable="0" vertex="1" parent="J3x-QJYufDD7xZZdP3bE-72">
          <mxGeometry x="0.0949" y="3" relative="1" as="geometry">
            <mxPoint as="offset" />
          </mxGeometry>
        </mxCell>
        <mxCell id="J3x-QJYufDD7xZZdP3bE-75" value="User input" style="edgeLabel;html=1;align=center;verticalAlign=middle;resizable=0;points=[];" connectable="0" vertex="1" parent="J3x-QJYufDD7xZZdP3bE-72">
          <mxGeometry x="0.111" y="-1" relative="1" as="geometry">
            <mxPoint as="offset" />
          </mxGeometry>
        </mxCell>
        <mxCell id="J3x-QJYufDD7xZZdP3bE-76" value="" style="edgeStyle=none;noEdgeStyle=1;strokeColor=#990000;strokeWidth=2;entryX=0.5;entryY=0;entryDx=0;entryDy=0;exitX=0.567;exitY=1.004;exitDx=0;exitDy=0;exitPerimeter=0;" edge="1" parent="1" source="J3x-QJYufDD7xZZdP3bE-1" target="J3x-QJYufDD7xZZdP3bE-64">
          <mxGeometry width="100" height="100" relative="1" as="geometry">
            <mxPoint x="670" y="230" as="sourcePoint" />
            <mxPoint x="600" y="430" as="targetPoint" />
          </mxGeometry>
        </mxCell>
        <mxCell id="J3x-QJYufDD7xZZdP3bE-77" value="&lt;span style=&quot;color: rgba(0, 0, 0, 0); font-family: monospace; font-size: 0px; text-align: start; background-color: rgb(251, 251, 251);&quot;&gt;%3CmxGraphModel%3E%3Croot%3E%3CmxCell%20id%3D%220%22%2F%3E%3CmxCell%20id%3D%221%22%20parent%3D%220%22%2F%3E%3CmxCell%20id%3D%222%22%20value%3D%22Users%20Input%22%20style%3D%22text%3BspacingTop%3D-5%3Balign%3Dcenter%22%20vertex%3D%221%22%20parent%3D%221%22%3E%3CmxGeometry%20x%3D%22265%22%20y%3D%22251%22%20width%3D%2230%22%20height%3D%2220%22%20as%3D%22geometry%22%2F%3E%3C%2FmxCell%3E%3C%2Froot%3E%3C%2FmxGraphModel%3E&lt;/span&gt;&lt;span style=&quot;color: rgba(0, 0, 0, 0); font-family: monospace; font-size: 0px; text-align: start; background-color: rgb(251, 251, 251);&quot;&gt;%3CmxGraphModel%3E%3Croot%3E%3CmxCell%20id%3D%220%22%2F%3E%3CmxCell%20id%3D%221%22%20parent%3D%220%22%2F%3E%3CmxCell%20id%3D%222%22%20value%3D%22Users%20Input%22%20style%3D%22text%3BspacingTop%3D-5%3Balign%3Dcenter%22%20vertex%3D%221%22%20parent%3D%221%22%3E%3CmxGeometry%20x%3D%22265%22%20y%3D%22251%22%20width%3D%2230%22%20height%3D%2220%22%20as%3D%22geometry%22%2F%3E%3C%2FmxCell%3E%3C%2Froot%3E%3C%2FmxGraphModel%3EU&lt;/span&gt;" style="edgeLabel;html=1;align=center;verticalAlign=middle;resizable=0;points=[];" connectable="0" vertex="1" parent="J3x-QJYufDD7xZZdP3bE-76">
          <mxGeometry x="0.1192" y="1" relative="1" as="geometry">
            <mxPoint as="offset" />
          </mxGeometry>
        </mxCell>
        <mxCell id="J3x-QJYufDD7xZZdP3bE-78" value="" style="edgeLabel;html=1;align=center;verticalAlign=middle;resizable=0;points=[];" connectable="0" vertex="1" parent="J3x-QJYufDD7xZZdP3bE-76">
          <mxGeometry x="0.0949" y="3" relative="1" as="geometry">
            <mxPoint as="offset" />
          </mxGeometry>
        </mxCell>
        <mxCell id="J3x-QJYufDD7xZZdP3bE-79" value="User input" style="edgeLabel;html=1;align=center;verticalAlign=middle;resizable=0;points=[];" connectable="0" vertex="1" parent="J3x-QJYufDD7xZZdP3bE-76">
          <mxGeometry x="0.111" y="-1" relative="1" as="geometry">
            <mxPoint as="offset" />
          </mxGeometry>
        </mxCell>
        <mxCell id="J3x-QJYufDD7xZZdP3bE-88" value="&lt;p style=&quot;margin: 0px; margin-top: 4px; text-align: center; text-decoration: underline;&quot;&gt;&lt;strong&gt;Process 1.2&lt;br&gt;&lt;/strong&gt;&lt;/p&gt;&lt;hr&gt;&lt;p style=&quot;margin: 0px; margin-left: 8px;&quot;&gt;&lt;span style=&quot;background-color: initial;&quot;&gt;Generate all&amp;nbsp;&lt;/span&gt;&lt;/p&gt;&lt;p style=&quot;margin: 0px; margin-left: 8px;&quot;&gt;&lt;span style=&quot;background-color: initial;&quot;&gt;the resource&amp;nbsp; on&lt;/span&gt;&lt;/p&gt;&lt;p style=&quot;margin: 0px; margin-left: 8px;&quot;&gt;&lt;span style=&quot;background-color: initial;&quot;&gt;the motintor&lt;/span&gt;&lt;/p&gt;" style="verticalAlign=middle;align=center;overflow=fill;fontSize=12;fontFamily=Helvetica;html=1;rounded=1;fontStyle=1;strokeWidth=3;fillColor=#E6FFCC" vertex="1" parent="1">
          <mxGeometry x="90" y="150" width="144" height="90" as="geometry" />
        </mxCell>
        <mxCell id="J3x-QJYufDD7xZZdP3bE-90" value="" style="edgeStyle=none;noEdgeStyle=1;strokeColor=#990000;strokeWidth=2;exitX=0;exitY=0.5;exitDx=0;exitDy=0;entryX=1;entryY=0.5;entryDx=0;entryDy=0;" edge="1" parent="1" source="J3x-QJYufDD7xZZdP3bE-1" target="J3x-QJYufDD7xZZdP3bE-88">
          <mxGeometry width="100" height="100" relative="1" as="geometry">
            <mxPoint x="540" y="213" as="sourcePoint" />
            <mxPoint x="540" y="310" as="targetPoint" />
          </mxGeometry>
        </mxCell>
        <mxCell id="J3x-QJYufDD7xZZdP3bE-91" value="&lt;span style=&quot;color: rgba(0, 0, 0, 0); font-family: monospace; font-size: 0px; text-align: start; background-color: rgb(251, 251, 251);&quot;&gt;%3CmxGraphModel%3E%3Croot%3E%3CmxCell%20id%3D%220%22%2F%3E%3CmxCell%20id%3D%221%22%20parent%3D%220%22%2F%3E%3CmxCell%20id%3D%222%22%20value%3D%22Users%20Input%22%20style%3D%22text%3BspacingTop%3D-5%3Balign%3Dcenter%22%20vertex%3D%221%22%20parent%3D%221%22%3E%3CmxGeometry%20x%3D%22265%22%20y%3D%22251%22%20width%3D%2230%22%20height%3D%2220%22%20as%3D%22geometry%22%2F%3E%3C%2FmxCell%3E%3C%2Froot%3E%3C%2FmxGraphModel%3E&lt;/span&gt;&lt;span style=&quot;color: rgba(0, 0, 0, 0); font-family: monospace; font-size: 0px; text-align: start; background-color: rgb(251, 251, 251);&quot;&gt;%3CmxGraphModel%3E%3Croot%3E%3CmxCell%20id%3D%220%22%2F%3E%3CmxCell%20id%3D%221%22%20parent%3D%220%22%2F%3E%3CmxCell%20id%3D%222%22%20value%3D%22Users%20Input%22%20style%3D%22text%3BspacingTop%3D-5%3Balign%3Dcenter%22%20vertex%3D%221%22%20parent%3D%221%22%3E%3CmxGeometry%20x%3D%22265%22%20y%3D%22251%22%20width%3D%2230%22%20height%3D%2220%22%20as%3D%22geometry%22%2F%3E%3C%2FmxCell%3E%3C%2Froot%3E%3C%2FmxGraphModel%3EU&lt;/span&gt;" style="edgeLabel;html=1;align=center;verticalAlign=middle;resizable=0;points=[];" connectable="0" vertex="1" parent="J3x-QJYufDD7xZZdP3bE-90">
          <mxGeometry x="0.1192" y="1" relative="1" as="geometry">
            <mxPoint as="offset" />
          </mxGeometry>
        </mxCell>
        <mxCell id="J3x-QJYufDD7xZZdP3bE-92" value="" style="edgeLabel;html=1;align=center;verticalAlign=middle;resizable=0;points=[];" connectable="0" vertex="1" parent="J3x-QJYufDD7xZZdP3bE-90">
          <mxGeometry x="0.0949" y="3" relative="1" as="geometry">
            <mxPoint as="offset" />
          </mxGeometry>
        </mxCell>
        <mxCell id="J3x-QJYufDD7xZZdP3bE-93" value="User input" style="edgeLabel;html=1;align=center;verticalAlign=middle;resizable=0;points=[];" connectable="0" vertex="1" parent="J3x-QJYufDD7xZZdP3bE-90">
          <mxGeometry x="0.111" y="-1" relative="1" as="geometry">
            <mxPoint x="3" y="16" as="offset" />
          </mxGeometry>
        </mxCell>
        <mxCell id="J3x-QJYufDD7xZZdP3bE-95" value="&lt;p style=&quot;margin: 0px; margin-top: 4px; text-align: center; text-decoration: underline;&quot;&gt;&lt;strong&gt;Process 2.2&lt;br&gt;&lt;/strong&gt;&lt;/p&gt;&lt;hr&gt;&lt;p style=&quot;margin: 0px; margin-left: 8px;&quot;&gt;Update monster&amp;nbsp;&lt;/p&gt;&lt;p style=&quot;margin: 0px; margin-left: 8px;&quot;&gt;killing record&lt;/p&gt;" style="verticalAlign=middle;align=center;overflow=fill;fontSize=12;fontFamily=Helvetica;html=1;rounded=1;fontStyle=1;strokeWidth=3;fillColor=#E6FFCC" vertex="1" parent="1">
          <mxGeometry x="88" y="620" width="144" height="90" as="geometry" />
        </mxCell>
        <mxCell id="J3x-QJYufDD7xZZdP3bE-97" value="&lt;p style=&quot;margin: 0px; margin-top: 4px; text-align: center; text-decoration: underline;&quot;&gt;&lt;strong&gt;Process 3.2&lt;br&gt;&lt;/strong&gt;&lt;/p&gt;&lt;hr&gt;&lt;p style=&quot;margin: 0px; margin-left: 8px;&quot;&gt;Update map&amp;nbsp;&lt;/p&gt;&lt;p style=&quot;margin: 0px; margin-left: 8px;&quot;&gt;generating&lt;/p&gt;&lt;p style=&quot;margin: 0px; margin-left: 8px;&quot;&gt;&lt;span style=&quot;background-color: initial;&quot;&gt;&amp;nbsp;record&lt;/span&gt;&lt;/p&gt;" style="verticalAlign=middle;align=center;overflow=fill;fontSize=12;fontFamily=Helvetica;html=1;rounded=1;fontStyle=1;strokeWidth=3;fillColor=#E6FFCC" vertex="1" parent="1">
          <mxGeometry x="315" y="620" width="144" height="90" as="geometry" />
        </mxCell>
        <mxCell id="J3x-QJYufDD7xZZdP3bE-99" value="&lt;p style=&quot;margin: 0px; margin-top: 4px; text-align: center; text-decoration: underline;&quot;&gt;&lt;strong&gt;Process 4.2&lt;br&gt;&lt;/strong&gt;&lt;/p&gt;&lt;hr&gt;&lt;p style=&quot;margin: 0px; margin-left: 8px;&quot;&gt;Update setting&amp;nbsp;&lt;/p&gt;&lt;p style=&quot;margin: 0px; margin-left: 8px;&quot;&gt;system&amp;nbsp;&lt;span style=&quot;background-color: initial;&quot;&gt;changing&amp;nbsp;&lt;/span&gt;&lt;/p&gt;" style="verticalAlign=middle;align=center;overflow=fill;fontSize=12;fontFamily=Helvetica;html=1;rounded=1;fontStyle=1;strokeWidth=3;fillColor=#E6FFCC" vertex="1" parent="1">
          <mxGeometry x="527" y="620" width="144" height="90" as="geometry" />
        </mxCell>
        <mxCell id="J3x-QJYufDD7xZZdP3bE-100" value="" style="edgeStyle=none;noEdgeStyle=1;strokeColor=#990000;strokeWidth=2;exitX=0.5;exitY=1;exitDx=0;exitDy=0;entryX=0.5;entryY=0;entryDx=0;entryDy=0;" edge="1" parent="1" source="J3x-QJYufDD7xZZdP3bE-7" target="J3x-QJYufDD7xZZdP3bE-95">
          <mxGeometry width="100" height="100" relative="1" as="geometry">
            <mxPoint x="185.5" y="570" as="sourcePoint" />
            <mxPoint x="185.5" y="650" as="targetPoint" />
            <Array as="points" />
          </mxGeometry>
        </mxCell>
        <mxCell id="J3x-QJYufDD7xZZdP3bE-101" value="&amp;nbsp;monster killing record" style="edgeLabel;html=1;align=center;verticalAlign=middle;resizable=0;points=[];" connectable="0" vertex="1" parent="J3x-QJYufDD7xZZdP3bE-100">
          <mxGeometry x="-0.0797" y="-2" relative="1" as="geometry">
            <mxPoint y="1" as="offset" />
          </mxGeometry>
        </mxCell>
        <mxCell id="J3x-QJYufDD7xZZdP3bE-102" value="" style="edgeStyle=none;noEdgeStyle=1;strokeColor=#990000;strokeWidth=2;entryX=0.456;entryY=-0.004;entryDx=0;entryDy=0;exitX=0.5;exitY=1;exitDx=0;exitDy=0;entryPerimeter=0;" edge="1" parent="1" source="J3x-QJYufDD7xZZdP3bE-43" target="J3x-QJYufDD7xZZdP3bE-97">
          <mxGeometry width="100" height="100" relative="1" as="geometry">
            <mxPoint x="376" y="556" as="sourcePoint" />
            <mxPoint x="375" y="613" as="targetPoint" />
            <Array as="points" />
          </mxGeometry>
        </mxCell>
        <mxCell id="J3x-QJYufDD7xZZdP3bE-103" value="&amp;nbsp;map generating record" style="edgeLabel;html=1;align=center;verticalAlign=middle;resizable=0;points=[];" connectable="0" vertex="1" parent="J3x-QJYufDD7xZZdP3bE-102">
          <mxGeometry x="-0.0797" y="-2" relative="1" as="geometry">
            <mxPoint x="23" y="1" as="offset" />
          </mxGeometry>
        </mxCell>
        <mxCell id="J3x-QJYufDD7xZZdP3bE-104" value="" style="edgeStyle=none;noEdgeStyle=1;strokeColor=#990000;strokeWidth=2;entryX=0.5;entryY=0;entryDx=0;entryDy=0;exitX=0.5;exitY=1;exitDx=0;exitDy=0;" edge="1" parent="1" source="J3x-QJYufDD7xZZdP3bE-5" target="J3x-QJYufDD7xZZdP3bE-99">
          <mxGeometry width="100" height="100" relative="1" as="geometry">
            <mxPoint x="618" y="570" as="sourcePoint" />
            <mxPoint x="620" y="658" as="targetPoint" />
            <Array as="points" />
          </mxGeometry>
        </mxCell>
        <mxCell id="J3x-QJYufDD7xZZdP3bE-105" value="setting changing record" style="edgeLabel;html=1;align=center;verticalAlign=middle;resizable=0;points=[];" connectable="0" vertex="1" parent="J3x-QJYufDD7xZZdP3bE-104">
          <mxGeometry x="-0.1913" y="-2" relative="1" as="geometry">
            <mxPoint as="offset" />
          </mxGeometry>
        </mxCell>
        <mxCell id="J3x-QJYufDD7xZZdP3bE-106" value="&lt;p style=&quot;margin: 0px; margin-top: 4px; text-align: center; text-decoration: underline;&quot;&gt;&lt;strong&gt;Process 6.2&lt;br&gt;&lt;/strong&gt;&lt;/p&gt;&lt;hr&gt;&lt;p style=&quot;margin: 0px; margin-left: 8px;&quot;&gt;Receive the&amp;nbsp;&lt;/p&gt;&lt;p style=&quot;margin: 0px; margin-left: 8px;&quot;&gt;information to the&amp;nbsp;&lt;/p&gt;&lt;p style=&quot;margin: 0px; margin-left: 8px;&quot;&gt;game server&lt;/p&gt;" style="verticalAlign=middle;align=center;overflow=fill;fontSize=12;fontFamily=Helvetica;html=1;rounded=1;fontStyle=1;strokeWidth=3;fillColor=#E6FFCC" vertex="1" parent="1">
          <mxGeometry x="744" y="950" width="144" height="90" as="geometry" />
        </mxCell>
        <mxCell id="J3x-QJYufDD7xZZdP3bE-108" value="" style="edgeStyle=none;noEdgeStyle=1;strokeColor=#990000;strokeWidth=2;exitX=0;exitY=0.5;exitDx=0;exitDy=0;entryX=1;entryY=0.25;entryDx=0;entryDy=0;" edge="1" parent="1" source="J3x-QJYufDD7xZZdP3bE-106" target="J3x-QJYufDD7xZZdP3bE-39">
          <mxGeometry width="100" height="100" relative="1" as="geometry">
            <mxPoint x="827" y="1070" as="sourcePoint" />
            <mxPoint x="989" y="1110" as="targetPoint" />
            <Array as="points" />
          </mxGeometry>
        </mxCell>
        <mxCell id="J3x-QJYufDD7xZZdP3bE-109" value="&lt;span style=&quot;font-size: 12px; background-color: rgb(251, 251, 251);&quot;&gt;Game server information display&lt;/span&gt;" style="edgeLabel;html=1;align=center;verticalAlign=middle;resizable=0;points=[];" connectable="0" vertex="1" parent="J3x-QJYufDD7xZZdP3bE-108">
          <mxGeometry x="0.0281" y="-2" relative="1" as="geometry">
            <mxPoint x="85" y="21" as="offset" />
          </mxGeometry>
        </mxCell>
        <mxCell id="J3x-QJYufDD7xZZdP3bE-110" value="" style="edgeStyle=none;noEdgeStyle=1;strokeColor=#990000;strokeWidth=2;entryX=0.5;entryY=0;entryDx=0;entryDy=0;" edge="1" parent="1" target="J3x-QJYufDD7xZZdP3bE-65">
          <mxGeometry width="100" height="100" relative="1" as="geometry">
            <mxPoint x="375" y="402" as="sourcePoint" />
            <mxPoint x="381" y="470" as="targetPoint" />
            <Array as="points" />
          </mxGeometry>
        </mxCell>
        <mxCell id="J3x-QJYufDD7xZZdP3bE-111" value="&amp;nbsp;map generating record" style="edgeLabel;html=1;align=center;verticalAlign=middle;resizable=0;points=[];" connectable="0" vertex="1" parent="J3x-QJYufDD7xZZdP3bE-110">
          <mxGeometry x="-0.0797" y="-2" relative="1" as="geometry">
            <mxPoint x="23" y="70" as="offset" />
          </mxGeometry>
        </mxCell>
        <mxCell id="J3x-QJYufDD7xZZdP3bE-65" value="&lt;p style=&quot;margin: 0px; margin-top: 4px; text-align: center; text-decoration: underline;&quot;&gt;&lt;strong&gt;Process 1.4&lt;br&gt;&lt;/strong&gt;&lt;/p&gt;&lt;hr&gt;&lt;p style=&quot;margin: 0px; margin-left: 8px;&quot;&gt;Initial the&amp;nbsp;&lt;/p&gt;&lt;p style=&quot;margin: 0px; margin-left: 8px;&quot;&gt;primary map&lt;/p&gt;&lt;p style=&quot;margin: 0px; margin-left: 8px;&quot;&gt;&lt;br&gt;&lt;/p&gt;" style="verticalAlign=middle;align=center;overflow=fill;fontSize=12;fontFamily=Helvetica;html=1;rounded=1;fontStyle=1;strokeWidth=3;fillColor=#E6FFCC" vertex="1" parent="1">
          <mxGeometry x="309" y="310" width="144" height="90" as="geometry" />
        </mxCell>
        <mxCell id="J3x-QJYufDD7xZZdP3bE-112" value="" style="edgeStyle=none;noEdgeStyle=1;strokeColor=#990000;strokeWidth=2;entryX=0.5;entryY=0;entryDx=0;entryDy=0;" edge="1" parent="1" target="J3x-QJYufDD7xZZdP3bE-131">
          <mxGeometry width="100" height="100" relative="1" as="geometry">
            <mxPoint x="560" y="215" as="sourcePoint" />
            <mxPoint x="816" y="307" as="targetPoint" />
          </mxGeometry>
        </mxCell>
        <mxCell id="J3x-QJYufDD7xZZdP3bE-113" value="&lt;span style=&quot;color: rgba(0, 0, 0, 0); font-family: monospace; font-size: 0px; text-align: start; background-color: rgb(251, 251, 251);&quot;&gt;%3CmxGraphModel%3E%3Croot%3E%3CmxCell%20id%3D%220%22%2F%3E%3CmxCell%20id%3D%221%22%20parent%3D%220%22%2F%3E%3CmxCell%20id%3D%222%22%20value%3D%22Users%20Input%22%20style%3D%22text%3BspacingTop%3D-5%3Balign%3Dcenter%22%20vertex%3D%221%22%20parent%3D%221%22%3E%3CmxGeometry%20x%3D%22265%22%20y%3D%22251%22%20width%3D%2230%22%20height%3D%2220%22%20as%3D%22geometry%22%2F%3E%3C%2FmxCell%3E%3C%2Froot%3E%3C%2FmxGraphModel%3E&lt;/span&gt;&lt;span style=&quot;color: rgba(0, 0, 0, 0); font-family: monospace; font-size: 0px; text-align: start; background-color: rgb(251, 251, 251);&quot;&gt;%3CmxGraphModel%3E%3Croot%3E%3CmxCell%20id%3D%220%22%2F%3E%3CmxCell%20id%3D%221%22%20parent%3D%220%22%2F%3E%3CmxCell%20id%3D%222%22%20value%3D%22Users%20Input%22%20style%3D%22text%3BspacingTop%3D-5%3Balign%3Dcenter%22%20vertex%3D%221%22%20parent%3D%221%22%3E%3CmxGeometry%20x%3D%22265%22%20y%3D%22251%22%20width%3D%2230%22%20height%3D%2220%22%20as%3D%22geometry%22%2F%3E%3C%2FmxCell%3E%3C%2Froot%3E%3C%2FmxGraphModel%3EU&lt;/span&gt;" style="edgeLabel;html=1;align=center;verticalAlign=middle;resizable=0;points=[];" connectable="0" vertex="1" parent="J3x-QJYufDD7xZZdP3bE-112">
          <mxGeometry x="0.1192" y="1" relative="1" as="geometry">
            <mxPoint as="offset" />
          </mxGeometry>
        </mxCell>
        <mxCell id="J3x-QJYufDD7xZZdP3bE-114" value="" style="edgeLabel;html=1;align=center;verticalAlign=middle;resizable=0;points=[];" connectable="0" vertex="1" parent="J3x-QJYufDD7xZZdP3bE-112">
          <mxGeometry x="0.0949" y="3" relative="1" as="geometry">
            <mxPoint as="offset" />
          </mxGeometry>
        </mxCell>
        <mxCell id="J3x-QJYufDD7xZZdP3bE-115" value="User input" style="edgeLabel;html=1;align=center;verticalAlign=middle;resizable=0;points=[];" connectable="0" vertex="1" parent="J3x-QJYufDD7xZZdP3bE-112">
          <mxGeometry x="0.111" y="-1" relative="1" as="geometry">
            <mxPoint x="3" y="16" as="offset" />
          </mxGeometry>
        </mxCell>
        <mxCell id="J3x-QJYufDD7xZZdP3bE-117" value="&lt;p style=&quot;margin: 0px; margin-top: 4px; text-align: center; text-decoration: underline;&quot;&gt;&lt;strong&gt;Process 5.1&lt;br&gt;&lt;/strong&gt;&lt;/p&gt;&lt;hr&gt;&lt;p style=&quot;margin: 0px; margin-left: 8px;&quot;&gt;&lt;span style=&quot;background-color: initial;&quot;&gt;Receive&lt;/span&gt;&amp;nbsp;Storage&lt;/p&gt;&lt;p style=&quot;margin: 0px; margin-left: 8px;&quot;&gt;input log&amp;nbsp;&lt;/p&gt;" style="verticalAlign=middle;align=center;overflow=fill;fontSize=12;fontFamily=Helvetica;html=1;rounded=1;fontStyle=1;strokeWidth=3;fillColor=#E6FFCC" vertex="1" parent="1">
          <mxGeometry x="744" y="472" width="144" height="90" as="geometry" />
        </mxCell>
        <mxCell id="J3x-QJYufDD7xZZdP3bE-118" value="" style="edgeStyle=none;noEdgeStyle=1;strokeColor=#990000;strokeWidth=2;entryX=0.5;entryY=0;entryDx=0;entryDy=0;exitX=0.5;exitY=1;exitDx=0;exitDy=0;" edge="1" parent="1" source="J3x-QJYufDD7xZZdP3bE-131" target="J3x-QJYufDD7xZZdP3bE-117">
          <mxGeometry width="100" height="100" relative="1" as="geometry">
            <mxPoint x="884" y="402" as="sourcePoint" />
            <mxPoint x="664" y="432" as="targetPoint" />
            <Array as="points" />
          </mxGeometry>
        </mxCell>
        <mxCell id="J3x-QJYufDD7xZZdP3bE-119" value="Storage&amp;nbsp; input log" style="edgeLabel;html=1;align=center;verticalAlign=middle;resizable=0;points=[];" connectable="0" vertex="1" parent="J3x-QJYufDD7xZZdP3bE-118">
          <mxGeometry x="-0.1913" y="-2" relative="1" as="geometry">
            <mxPoint as="offset" />
          </mxGeometry>
        </mxCell>
        <mxCell id="J3x-QJYufDD7xZZdP3bE-120" value="" style="edgeStyle=none;noEdgeStyle=1;strokeColor=#990000;strokeWidth=2;entryX=0.5;entryY=0;entryDx=0;entryDy=0;exitX=0.5;exitY=1;exitDx=0;exitDy=0;" edge="1" parent="1" source="J3x-QJYufDD7xZZdP3bE-132" target="J3x-QJYufDD7xZZdP3bE-127">
          <mxGeometry width="100" height="100" relative="1" as="geometry">
            <mxPoint x="835" y="692" as="sourcePoint" />
            <mxPoint x="735" y="612" as="targetPoint" />
            <Array as="points" />
          </mxGeometry>
        </mxCell>
        <mxCell id="J3x-QJYufDD7xZZdP3bE-121" value="Storage&amp;nbsp; game data" style="edgeLabel;html=1;align=center;verticalAlign=middle;resizable=0;points=[];" connectable="0" vertex="1" parent="J3x-QJYufDD7xZZdP3bE-120">
          <mxGeometry x="-0.1913" y="-2" relative="1" as="geometry">
            <mxPoint as="offset" />
          </mxGeometry>
        </mxCell>
        <mxCell id="J3x-QJYufDD7xZZdP3bE-122" value="Storage input &#xa;log" style="group;align=right;" connectable="0" vertex="1" parent="1">
          <mxGeometry x="756" y="810" width="120" height="60" as="geometry" />
        </mxCell>
        <mxCell id="J3x-QJYufDD7xZZdP3bE-123" value="" style="endArrow=none;html=1;rounded=0;fillColor=#60a917;strokeColor=#2D7600;" edge="1" parent="J3x-QJYufDD7xZZdP3bE-122">
          <mxGeometry width="50" height="50" relative="1" as="geometry">
            <mxPoint as="sourcePoint" />
            <mxPoint x="120" as="targetPoint" />
          </mxGeometry>
        </mxCell>
        <mxCell id="J3x-QJYufDD7xZZdP3bE-124" value="" style="endArrow=none;html=1;rounded=0;fillColor=#60a917;strokeColor=#000000;jumpSize=6;strokeWidth=3;" edge="1" parent="J3x-QJYufDD7xZZdP3bE-122">
          <mxGeometry width="50" height="50" relative="1" as="geometry">
            <mxPoint y="60" as="sourcePoint" />
            <mxPoint x="120" y="60" as="targetPoint" />
          </mxGeometry>
        </mxCell>
        <mxCell id="J3x-QJYufDD7xZZdP3bE-125" value="" style="endArrow=none;html=1;rounded=0;fillColor=#60a917;strokeColor=#2D7600;" edge="1" parent="J3x-QJYufDD7xZZdP3bE-122">
          <mxGeometry width="50" height="50" relative="1" as="geometry">
            <mxPoint y="60" as="sourcePoint" />
            <mxPoint as="targetPoint" />
          </mxGeometry>
        </mxCell>
        <mxCell id="J3x-QJYufDD7xZZdP3bE-126" value="" style="endArrow=none;html=1;rounded=0;fillColor=#60a917;strokeColor=#2D7600;" edge="1" parent="J3x-QJYufDD7xZZdP3bE-122">
          <mxGeometry width="50" height="50" relative="1" as="geometry">
            <mxPoint x="30" y="60" as="sourcePoint" />
            <mxPoint x="30" as="targetPoint" />
          </mxGeometry>
        </mxCell>
        <mxCell id="J3x-QJYufDD7xZZdP3bE-127" value="storage input log" style="shape=partialRectangle;whiteSpace=wrap;html=1;bottom=0;right=0;fillColor=#cce5ff;strokeColor=#36393d;align=right;" vertex="1" parent="J3x-QJYufDD7xZZdP3bE-122">
          <mxGeometry width="120" height="60" as="geometry" />
        </mxCell>
        <mxCell id="J3x-QJYufDD7xZZdP3bE-128" value="" style="line;strokeWidth=2;direction=south;html=1;" vertex="1" parent="J3x-QJYufDD7xZZdP3bE-122">
          <mxGeometry x="20" width="10" height="60" as="geometry" />
        </mxCell>
        <mxCell id="J3x-QJYufDD7xZZdP3bE-129" value="D1" style="text;spacingTop=-5;align=center" vertex="1" parent="J3x-QJYufDD7xZZdP3bE-122">
          <mxGeometry y="20" width="30" height="20" as="geometry" />
        </mxCell>
        <mxCell id="J3x-QJYufDD7xZZdP3bE-130" value="" style="edgeLabel;html=1;align=center;verticalAlign=middle;resizable=0;points=[];strokeColor=#36393d;fontFamily=Helvetica;fontSize=12;fontColor=default;fillColor=#cce5ff;" connectable="0" vertex="1" parent="1">
          <mxGeometry x="791.7020827907779" y="896.3724308364049" as="geometry" />
        </mxCell>
        <mxCell id="J3x-QJYufDD7xZZdP3bE-131" value="&lt;p style=&quot;margin: 0px; margin-top: 4px; text-align: center; text-decoration: underline;&quot;&gt;&lt;strong&gt;Process 1.6&lt;br&gt;&lt;/strong&gt;&lt;/p&gt;&lt;hr&gt;&lt;p style=&quot;margin: 0px; margin-left: 8px;&quot;&gt;Receive users&#39;&amp;nbsp;&lt;/p&gt;&lt;p style=&quot;margin: 0px; margin-left: 8px;&quot;&gt;input log&lt;/p&gt;" style="verticalAlign=middle;align=center;overflow=fill;fontSize=12;fontFamily=Helvetica;html=1;rounded=1;fontStyle=1;strokeWidth=3;fillColor=#E6FFCC" vertex="1" parent="1">
          <mxGeometry x="744" y="312" width="144" height="90" as="geometry" />
        </mxCell>
        <mxCell id="J3x-QJYufDD7xZZdP3bE-132" value="&lt;p style=&quot;margin: 0px; margin-top: 4px; text-align: center; text-decoration: underline;&quot;&gt;&lt;strong&gt;Process 5.2&lt;br&gt;&lt;/strong&gt;&lt;/p&gt;&lt;hr&gt;&lt;p style=&quot;margin: 0px; margin-left: 8px;&quot;&gt;Update Storage&lt;/p&gt;&lt;p style=&quot;margin: 0px; margin-left: 8px;&quot;&gt;input log&amp;nbsp;&lt;/p&gt;" style="verticalAlign=middle;align=center;overflow=fill;fontSize=12;fontFamily=Helvetica;html=1;rounded=1;fontStyle=1;strokeWidth=3;fillColor=#E6FFCC" vertex="1" parent="1">
          <mxGeometry x="744" y="622" width="144" height="90" as="geometry" />
        </mxCell>
        <mxCell id="J3x-QJYufDD7xZZdP3bE-133" value="" style="edgeStyle=none;noEdgeStyle=1;strokeColor=#990000;strokeWidth=2;entryX=0.5;entryY=0;entryDx=0;entryDy=0;exitX=0.5;exitY=1;exitDx=0;exitDy=0;" edge="1" parent="1" source="J3x-QJYufDD7xZZdP3bE-117" target="J3x-QJYufDD7xZZdP3bE-132">
          <mxGeometry width="100" height="100" relative="1" as="geometry">
            <mxPoint x="835" y="572" as="sourcePoint" />
            <mxPoint x="837" y="660" as="targetPoint" />
            <Array as="points" />
          </mxGeometry>
        </mxCell>
        <mxCell id="J3x-QJYufDD7xZZdP3bE-134" value="Storage&amp;nbsp; input log" style="edgeLabel;html=1;align=center;verticalAlign=middle;resizable=0;points=[];" connectable="0" vertex="1" parent="J3x-QJYufDD7xZZdP3bE-133">
          <mxGeometry x="-0.1913" y="-2" relative="1" as="geometry">
            <mxPoint as="offset" />
          </mxGeometry>
        </mxCell>
        <mxCell id="J3x-QJYufDD7xZZdP3bE-135" value="" style="edgeStyle=none;noEdgeStyle=1;strokeColor=#990000;strokeWidth=2;entryX=1;entryY=0.25;entryDx=0;entryDy=0;exitX=0.5;exitY=1;exitDx=0;exitDy=0;" edge="1" parent="1" source="J3x-QJYufDD7xZZdP3bE-127" target="J3x-QJYufDD7xZZdP3bE-6">
          <mxGeometry width="100" height="100" relative="1" as="geometry">
            <mxPoint x="730" y="852" as="sourcePoint" />
            <mxPoint x="730" y="950" as="targetPoint" />
            <Array as="points" />
          </mxGeometry>
        </mxCell>
        <mxCell id="J3x-QJYufDD7xZZdP3bE-136" value="Storage&amp;nbsp; game data" style="edgeLabel;html=1;align=center;verticalAlign=middle;resizable=0;points=[];" connectable="0" vertex="1" parent="J3x-QJYufDD7xZZdP3bE-135">
          <mxGeometry x="-0.1913" y="-2" relative="1" as="geometry">
            <mxPoint as="offset" />
          </mxGeometry>
        </mxCell>
      </root>
    </mxGraphModel>
  </diagram>
</mxfile>
